# xmcd
#
# Track frame offsets:
#	150
#	15718
#	45488
#	64014
#	79565
#	97144
#	120244
#	137898
#
# Disc length: 2048 seconds
#
# Revision: 0
# Processed by: cddbd v1.5PL3 Copyright (c) Steve Scherf et al.
# Submitted via: audiograbber 1.81.03
#
DISCID=5f07fe08
DTITLE=Brian`Gladstone - Alive and Picking
DYEAR=2003
DGENRE=
TTITLE0=Asphalt Cowboy
TTITLE1=Jamie Lynn
TTITLE2=I Like Me
TTITLE3=Who Killed Betty Two Shoes
TTITLE4=Somebody Stole My Gal
TTITLE5=Caren 42
TTITLE6=Flashing Before My Eyes
TTITLE7=The`Black Bearded Wonder
EXTD=
EXTT0=
EXTT1=
EXTT2=
EXTT3=
EXTT4=
EXTT5=
EXTT6=
EXTT7=
PLAYORDER=
